<?xml version="1.0" encoding="UTF-8" ?>
<!DOCTYPE svg PUBLIC "-//W3C//DTD SVG 1.1//EN" "http://www.w3.org/Graphics/SVG/1.1/DTD/svg11.dtd">
<svg width="128pt" height="147pt" viewBox="0 0 128 147" version="1.1" xmlns="http://www.w3.org/2000/svg">
<path fill="#fff" d=" M 55.32 5.31 C 58.12 3.75 60.78 1.72 63.94 0.96 C 66.95 1.49 69.46 3.43 72.09 4.87 C 86.82 13.51 101.66 21.99 116.43 30.56 C 119.79 32.56 123.39 34.20 126.51 36.57 C 127.23 38.61 127.07 40.83 127.15 42.96 C 126.85 65.28 127.17 87.61 126.97 109.93 C 105.99 122.03 85.07 134.23 64.07 146.30 C 43.00 134.28 22.09 121.96 1.02 109.92 C 0.85 87.26 1.13 64.60 0.86 41.94 C 0.97 40.16 0.80 38.27 1.54 36.61 C 4.66 34.26 8.25 32.63 11.60 30.63 C 26.17 22.18 40.79 13.81 55.32 5.31 Z"/>
<path fill="#111" d=" M 6.42 40.18 C 23.73 29.75 41.29 19.72 58.88 9.76 C 41.51 40.32 23.90 70.75 6.28 101.17 C 6.29 80.84 6.04 60.50 6.42 40.18 Z" />
<path fill="#111" d=" M 69.22 9.78 C 85.22 18.69 100.90 28.14 116.87 37.10 C 118.50 38.08 120.25 38.96 121.55 40.39 C 121.97 42.90 121.84 45.46 121.85 48.00 C 121.58 65.51 121.98 83.02 121.63 100.53 C 103.83 70.48 86.66 40.05 69.22 9.78 Z" />
<path fill="#111" d=" M 29.90 70.92 C 41.32 51.19 52.61 31.39 64.06 11.68 C 74.17 29.01 84.08 46.45 94.15 63.80 C 96.19 67.26 98.08 70.79 99.91 74.36 C 70.45 84.13 41.04 94.03 11.46 103.43 C 17.18 92.35 23.91 81.85 29.90 70.92 Z" />
<path fill="#111" d=" M 10.84 109.14 C 41.48 98.99 72.08 88.69 102.83 78.91 C 108.38 88.57 113.99 98.19 119.46 107.89 C 103.49 117.15 87.50 126.38 71.53 135.65 C 69.15 136.82 66.72 138.40 63.98 138.43 C 59.89 137.60 56.18 135.53 52.61 133.44 C 38.73 125.26 24.68 117.38 10.84 109.14 Z" />
</svg>
