<?xml version="1.0" encoding="UTF-8"?>
<svg width="84px" height="24px" viewBox="0 -8 84 32" version="1.1" xmlns="http://www.w3.org/2000/svg" xmlns:xlink="http://www.w3.org/1999/xlink">
    <!-- Generator: Sketch 53.2 (72643) - https://sketchapp.com -->
    <title>Fill 1</title>
    <desc>Created with Sketch.</desc>
    <g id="■--Komponentbibliotek--■" stroke="none" stroke-width="1" fill="none" fill-rule="evenodd">
        <g id="[NAVIGATION]-/-GLOBAL-MENY-/-Coop.se_Inloggad" transform="translate(-41.000000, -20.000000)" fill="#00AA46">
            <path d="M112.771258,34.703749 C109.52952,34.703749 108.198104,32.2818184 108.198104,29.5790942 C108.198104,26.8422101 109.52952,24.4209627 112.771258,24.4209627 C116.015762,24.4209627 117.34372,26.8422101 117.34372,29.5790942 C117.34372,32.2818184 116.015762,34.703749 112.771258,34.703749 M90.3716591,34.703749 C87.1285381,34.703749 85.7991974,32.2818184 85.7991974,29.5790942 C85.7991974,26.8422101 87.1285381,24.4209627 90.3716591,24.4209627 C93.6147802,24.4209627 94.9427376,26.8422101 94.9427376,29.5790942 C94.9427376,32.2818184 93.6147802,34.703749 90.3716591,34.703749 M69.2246286,34.703749 C65.9815076,34.703749 64.6542418,32.2818184 64.6542418,29.5790942 C64.6542418,26.8422101 65.9815076,24.4209627 69.2246286,24.4209627 C72.469133,24.4209627 73.7970904,26.8422101 73.7970904,29.5790942 C73.7970904,32.2818184 72.469133,34.703749 69.2246286,34.703749 M112.771258,20 C107.453895,20 103.142183,22.197159 101.570767,26.1200717 C100.000734,22.197159 95.6876387,20 90.3716591,20 C85.6484189,20 81.7184948,21.7346352 79.7977981,24.8705058 C77.8777929,21.7346352 73.9478689,20 69.2246286,20 C62.5039191,20 57.3850581,23.5082126 57.3850581,29.5790942 C57.3850581,31.1094537 57.7142809,32.4744798 58.3146283,33.6632412 C58.2378558,33.697401 58.1617749,33.7308776 58.0815441,33.7643542 C57.7765289,33.8839136 57.441773,33.996641 57.075893,34.1039028 C56.1470145,34.3546358 55.1005564,34.4926414 54.0520233,34.4926414 C51.0032544,34.4926414 48.2678004,32.5974551 48.2678004,29.6843064 C48.2678004,26.5265735 50.6138585,24.6327536 53.6605525,24.6327536 C54.821132,24.6327536 55.7154283,24.6990236 56.6332406,25.024225 C56.6332406,25.024225 57.6824653,22.7614791 59.4454671,21.4552079 C59.1086362,21.2994392 58.7531309,21.1457201 58.3727265,20.9913177 L58.3720348,20.9947337 C56.7826358,20.3094879 54.9262619,20 52.8402621,20 C46.1188609,20 41,23.5082126 41,29.5790942 C41,35.6144496 46.1188609,39.1233454 52.8402621,39.1233454 C54.6136386,39.1233454 56.5938168,38.8698796 58.2904208,38.397791 C58.9274254,38.2468046 60.4186109,37.7405562 61.5093343,37.1181645 C63.556602,38.4251188 66.2311912,39.1233454 69.2246286,39.1233454 C73.9478689,39.1233454 77.8777929,37.3893934 79.7977981,34.2644539 C81.7184948,37.3893934 85.6484189,39.1233454 90.3716591,39.1233454 C95.0872913,39.1233454 99.0109905,37.3948589 100.934454,34.2801674 L100.934454,44 L108.168364,44 L108.168364,38.5036864 C109.573094,38.9108714 111.124452,39.1233454 112.771258,39.1233454 C119.493351,39.1233454 124.612903,35.6144496 124.612903,29.5790942 C124.612903,23.5082126 119.493351,20 112.771258,20" id="Fill-1"></path>
        </g>
    </g>
</svg>