<?xml version="1.0" encoding="UTF-8"?>
<svg width="307px" height="36px" viewBox="0 0 307 36" version="1.1" xmlns="http://www.w3.org/2000/svg" xmlns:xlink="http://www.w3.org/1999/xlink">
    <!-- Generator: Sketch 48.2 (47327) - http://www.bohemiancoding.com/sketch -->
    <title>Whitelines vit</title>
    <desc>Created with Sketch.</desc>
    <defs></defs>
    <g id="Page-1" stroke="none" stroke-width="1" fill="none" fill-rule="evenodd">
        <g id="Whitelines-vit" fill="#FFFFFF" fill-rule="nonzero">
            <polyline id="Shape" points="5.2 2.4 13.3 23.2 21.7 0.9 29.8 23.2 38.5 2.4 43.6 2.4 29.6 35.5 21.6 13.4 13.3 35.5 0.1 2.4 5.2 2.4"></polyline>
            <polyline id="Shape" points="57.1 14.5 70.5 14.5 70.5 2.4 75.2 2.4 75.2 33.5 70.5 33.5 70.5 18.9 57.1 18.9 57.1 33.5 52.4 33.5 52.4 2.4 57.1 2.4 57.1 14.5"></polyline>
            <rect id="Rectangle-path" x="87.6" y="2.4" width="4.7" height="31.1"></rect>
            <polyline id="Shape" points="113.4 6.8 113.4 33.5 108.7 33.5 108.7 6.8 101.5 6.8 101.5 2.4 120.5 2.4 120.5 6.8 113.4 6.8"></polyline>
            <polyline id="Shape" points="146.9 6.8 134.4 6.8 134.4 14.3 146.5 14.3 146.5 18.7 134.4 18.7 134.4 29.1 146.9 29.1 146.9 33.5 129.7 33.5 129.7 2.4 146.9 2.4 146.9 6.8"></polyline>
            <polyline id="Shape" points="162.7 2.4 162.7 29.1 171.9 29.1 171.9 33.5 158 33.5 158 2.4 162.7 2.4"></polyline>
            <rect id="Rectangle-path" x="181.3" y="2.4" width="4.7" height="31.1"></rect>
            <polyline id="Shape" points="198.4 33.5 198.4 0.2 221.1 24 221.1 2.4 225.9 2.4 225.9 35.4 203.1 11.7 203.1 33.5 198.4 33.5"></polyline>
            <polyline id="Shape" points="255.5 6.8 243 6.8 243 14.3 255.1 14.3 255.1 18.7 243 18.7 243 29.1 255.5 29.1 255.5 33.5 238.3 33.5 238.3 2.4 255.5 2.4 255.5 6.8"></polyline>
            <path d="M284.2,7 L280.4,9.3 C279.7,8.1 279,7.3 278.4,6.9 C277.7,6.5 276.9,6.3 275.8,6.3 C274.5,6.3 273.4,6.7 272.6,7.4 C271.7,8.1 271.3,9 271.3,10.1 C271.3,11.6 272.4,12.8 274.7,13.8 L277.8,15.1 C280.3,16.1 282.2,17.4 283.3,18.8 C284.5,20.3 285.1,22.1 285.1,24.2 C285.1,27.1 284.1,29.4 282.2,31.3 C280.3,33.2 277.9,34.1 275,34.1 C272.3,34.1 270.1,33.3 268.3,31.7 C266.6,30.1 265.5,27.8 265.1,24.9 L269.9,23.9 C270.1,25.7 270.5,27 271,27.7 C272,29 273.4,29.7 275.2,29.7 C276.7,29.7 277.9,29.2 278.9,28.2 C279.9,27.2 280.4,26 280.4,24.5 C280.4,23.9 280.3,23.3 280.1,22.8 C279.9,22.3 279.7,21.8 279.3,21.4 C278.9,21 278.5,20.6 277.9,20.2 C277.3,19.8 276.7,19.5 275.9,19.1 L272.9,17.9 C268.6,16.1 266.5,13.5 266.5,10 C266.5,7.7 267.4,5.7 269.2,4.1 C271,2.5 273.2,1.7 275.9,1.7 C279.4,1.8 282.2,3.5 284.2,7" id="Shape"></path>
            <path d="M299.7,15.6 C297.9,15.6 296.4,15 295.2,13.7 C293.9,12.4 293.3,10.9 293.3,9.1 C293.3,7.3 293.9,5.8 295.2,4.5 C296.5,3.2 298,2.6 299.8,2.6 C301.6,2.6 303.1,3.2 304.4,4.5 C305.7,5.8 306.3,7.3 306.3,9.1 C306.3,10.9 305.7,12.5 304.4,13.7 C303.1,15 301.5,15.6 299.7,15.6 Z M299.7,14.7 C301.5,14.7 303,14 304,12.7 C304.9,11.6 305.3,10.4 305.3,9.1 C305.3,7.8 304.9,6.6 304,5.5 C302.9,4.2 301.5,3.5 299.7,3.5 C297.9,3.5 296.5,4.2 295.4,5.5 C294.5,6.6 294.1,7.8 294.1,9.1 C294.1,10.6 294.6,11.9 295.7,13 C296.9,14.1 298.2,14.7 299.7,14.7 Z M297.6,12.7 L297.6,5.7 L299.8,5.7 C300.5,5.7 301,5.8 301.4,6.1 C301.8,6.4 301.9,6.8 301.9,7.4 C301.9,7.8 301.8,8.2 301.6,8.5 C301.4,8.8 301.1,9.1 300.7,9.4 L302.8,12.7 L301.5,12.7 L299.6,9.8 L298.7,9.8 L298.7,12.7 L297.6,12.7 Z M298.6,8.8 L298.9,8.8 C299.5,8.8 300,8.7 300.3,8.5 C300.6,8.3 300.8,7.9 300.8,7.5 C300.8,7.1 300.7,6.9 300.4,6.7 C300.1,6.5 299.7,6.4 299.2,6.4 L298.6,6.4 L298.6,8.8 Z" id="Shape"></path>
        </g>
    </g>
</svg>