<?xml version="1.0" encoding="UTF-8"?>
<svg width="151px" height="24px" viewBox="0 0 151 24" version="1.1" xmlns="http://www.w3.org/2000/svg" xmlns:xlink="http://www.w3.org/1999/xlink">
    <!-- Generator: Sketch 54.1 (76490) - https://sketchapp.com -->
    <title>GoAhead</title>
    <g id="Symbols" stroke="none" stroke-width="1" fill="none" fill-rule="evenodd">
        <g id="Navigation/Top" transform="translate(-70.000000, -18.000000)">
            <g id="Icon/Logo/Colour" transform="translate(70.000000, 18.000000)">
                <path d="M94.6214244,10.9402455 C94.6214244,11.4608665 94.5472409,12.0042332 94.4252782,12.5994092 L92.0363182,23.6360707 L87.4319121,23.6360707 L89.5756894,13.7101518 C89.6963947,13.1655215 89.7454313,12.6967098 89.7454313,12.3264623 C89.7454313,11.3597751 89.3053597,10.9402455 88.466709,10.9402455 C86.0274551,10.9402455 82.7520653,15.8166453 81.9637085,19.5545025 L81.1049402,23.6360707 L76.5206517,23.6360707 L81.3501229,1.33655562 L86.2009691,0.050166643 L83.8358987,10.9655183 C85.5358323,8.88682494 87.8480941,7.27820689 90.5086411,7.27820689 C93.3414448,7.27820689 94.6214244,8.71370579 94.6214244,10.9402455 Z M74.961541,24 L69.9371809,24 L68.9765675,18.3805778 L73.3609378,15.2138874 L74.961541,24 Z M22.4097021,2.40130155 L21.327126,6.48666066 C19.4058992,5.76764757 17.2872689,5.32158145 15.2692264,5.32158145 C8.9409971,5.32158145 5.197874,9.84921575 5.197874,15.0718539 C5.197874,17.7204505 6.50174322,20.1453822 10.9338927,20.1453822 C12.2151296,20.1453822 13.3957788,19.9962723 14.3827965,19.7233253 L15.6363718,13.9105656 L20.6380996,12.622913 L18.518212,22.6473961 C15.9582527,23.4851917 12.8048255,23.9337851 10.0977567,23.9337851 C2.957281,23.9337851 0,20.5168933 0,15.6430207 C0,7.54938476 6.42755972,1.48516009 15.6627761,1.48516009 C18.1498092,1.48516009 20.3652552,1.85667125 22.4097021,2.40130155 Z M151,0 L147.158804,17.7946264 C146.763997,19.5763636 146.272374,22.0998594 145.976897,23.5859041 L141.469307,23.5859041 C142.036371,22.3487972 142.726654,20.6630969 143.687268,18.4618301 L143.564048,18.4618301 C142.085407,20.8387433 139.082862,23.933406 135.462959,23.933406 C132.679192,23.933406 131.176661,22.3487972 131.176661,18.9319054 C131.176661,12.8436715 134.894638,7.2267766 142.873764,7.2267766 C143.489864,7.2267766 144.029266,7.27479505 144.844027,7.35061366 L146.149154,1.28638898 L151,0 Z M144.104707,10.6916868 C143.513754,10.5678498 142.873764,10.4705492 142.06026,10.4705492 C137.850661,10.4705492 135.905545,14.7997915 135.905545,18.139601 C135.905545,19.7242098 136.370763,20.3674043 137.307487,20.3674043 C139.892593,20.3674043 143.169241,15.1220206 143.884671,11.7304017 L144.104707,10.6916868 Z M130.685542,7.72300937 L128.517875,17.7955109 C128.125582,19.5759845 127.63396,22.0994803 127.337226,23.5867886 L122.828378,23.5867886 C123.423103,22.3484181 124.109615,20.6627178 125.047596,18.461451 L124.923119,18.461451 C123.445735,20.8371006 120.440675,23.9330269 116.82203,23.9330269 C114.038262,23.9330269 112.53699,22.3484181 112.53699,18.9315263 C112.53699,12.8432924 116.256223,7.22639751 124.234092,7.22639751 C126.425649,7.22639751 128.617205,7.35149821 130.685542,7.72300937 Z M125.463778,10.6913077 C124.874082,10.5674707 124.234092,10.4701701 123.423103,10.4701701 C119.209732,10.4701701 117.264616,14.7994124 117.264616,18.1392219 C117.264616,19.7238307 117.732349,20.3682889 118.666558,20.3682889 C121.254179,20.3682889 124.529569,15.1216415 125.245,11.7312862 L125.463778,10.6913077 Z M106.527498,7.22766115 C110.664171,7.22766115 112.067371,9.20779036 112.067371,11.1386375 C112.067371,14.9725316 107.734551,16.8528329 100.592818,17.0537522 C100.567672,17.3974632 100.490973,17.9446208 100.490973,18.3148683 C100.490973,20.1458876 101.652762,20.6399722 103.868208,20.6399722 C105.492701,20.6399722 107.413928,20.07386 109.037163,19.3535832 L109.037163,22.5215372 C107.289451,23.2140138 104.55472,23.9330269 102.315384,23.9330269 C98.0542341,23.9330269 95.8865673,22.0514619 95.8865673,18.4892511 C95.8865673,11.781832 100.490973,7.22766115 106.527498,7.22766115 Z M107.510744,11.6820041 C107.510744,10.7911355 106.821717,10.1984868 105.6637,10.1984868 C103.27474,10.1984868 101.847651,11.9789603 101.108331,14.3053278 C105.321702,14.1814908 107.510744,13.3879227 107.510744,11.6820041 Z M72.8175123,14.651187 L59.6908058,18.8578559 L56.9082961,23.5826186 L52.0335603,23.5826186 L65.208046,1.80625188 L70.4775888,1.80625188 L72.8175123,14.651187 Z M67.9151149,14.651187 L67.151905,10.0717434 C66.9557589,8.95847352 66.8325388,7.77191237 66.7596127,6.58408757 L66.7105761,6.58408757 C66.1686594,7.72136663 65.501008,8.98501003 64.7642024,10.2448625 L62.1765815,14.651187 L67.9151149,14.651187 Z M40.3362064,13.5367799 C40.3362064,19.4026126 35.8550204,23.9302469 29.9706347,23.9302469 C25.5598601,23.9302469 22.410205,22.0992276 22.410205,17.498302 C22.410205,11.7563064 26.7933179,7.22740843 32.7279975,7.22740843 C37.9975403,7.22740843 40.3362064,9.42993887 40.3362064,13.5367799 Z M35.5595437,13.8109905 C35.5595437,11.7563064 34.597673,10.6430365 32.6022627,10.6430365 C28.9609848,10.6430365 27.188125,14.3808937 27.188125,17.5728569 C27.188125,19.3545941 28.172628,20.4666003 30.2887436,20.4666003 C33.6370596,20.4666003 35.5595437,17.026963 35.5595437,13.8109905 Z" id="logo_dark" fill="#0E78BE"></path>
                <path d="M55.1358135,14.651187 L42.9948674,14.651187 C42.8729047,16.2332686 42.3812818,17.6687675 41.8381078,18.9324109" id="Fill-154" fill="#DE076E"></path>
            </g>
        </g>
    </g>
</svg>