<?xml version="1.0" encoding="utf-8"?>
<!-- Generator: Adobe Illustrator 19.2.1, SVG Export Plug-In . SVG Version: 6.00 Build 0)  -->
<svg version="1.1" id="layer" xmlns="http://www.w3.org/2000/svg" xmlns:xlink="http://www.w3.org/1999/xlink" x="0px" y="0px"
	 viewBox="0 -50 652 752" style="enable-background:new 0 -50 652 752;" xml:space="preserve">
<g>
	<path fill="#FFF" d="M420.9,264.4c-6.4,44.3-45.6,46.3-71.8,44.8c-1.9-0.1-3.8-0.4-5.4-0.6c-2.5-0.3-2.6-3.1-0.5-4c5.3-2.3,31.6-16.6,34.5-46.7
		c0.6-6.2,0.6-14.9,0.6-16.5V125.1h43.4V243C421.6,256.8,421.2,261.9,420.9,264.4"/>
	<path fill="#FFF" d="M372.8,388.4c1.8-45.5,39.1-76.8,96.7-76.8h154.9c2.1,0,2.7,1.4,1.5,3.6c-5.6,10.8-23.8,41.7-46.3,41.7h-90.2
		c-49.8,0-83.2,27.2-92.7,55.1c-1.7,5.1-6.6,17.2-13.7,17.2C373.3,429.2,371.8,416.1,372.8,388.4"/>
	<path fill="#FFF" d="M280.4,388.4c-1.8-45.5-39.1-76.8-96.7-76.8h-155c-2.1,0-2.7,1.4-1.5,3.6c5.6,10.8,23.8,41.7,46.3,41.7h90.2
		c49.8,0,83.2,27.2,92.7,55.1c1.7,5.1,6.6,17.2,13.7,17.2C279.9,429.2,281.4,416.1,280.4,388.4"/>
	<path fill="#FFF" d="M326.6,482.6c-32.4,0-65-17.1-78.6-35.8c-16.9-23.2-20-65.2-95.6-65.2H85.6c-2.1,0-2.7,1.4-1.5,3.6
		c5.6,10.7,26.4,45,48.9,45h31.1c16.8,0,20.7,11.5,28.8,25c23.7,45.9,70.6,77.1,133.7,77.1c63.1,0,110-31.2,133.8-77.1
		c8.1-13.5,12-25,28.8-25h31.1c22.5,0,43.3-34.3,48.9-45c1.2-2.3,0.7-3.6-1.5-3.6h-66.8c-75.6,0-78.7,42.1-95.6,65.2
		C391.6,465.4,359,482.6,326.6,482.6"/>
	<path fill="#FFF" d="M342.1,130.8v28.4c0,0-22.5-10.9-39.5-10.9c-16.9,0-29.8,6-29.8,18.5c0,15.5,28.8,22.8,39.4,26.5c10.6,3.7,42,17.5,42,45.5
		c0,29.8-16.4,57.1-73.1,57.1c-29.9,0-47-9.3-47-9.3v-28.1c9.9,3.7,32.1,9.3,43.5,9.3c19.4,0,31.2-4.2,31.2-16.8
		c0-15.9-30.5-24.4-42.2-29.2c-11.8-4.8-38.8-16.3-38.8-48.8c0-36.3,32.5-51.1,71.3-51.1C325.5,121.9,342.1,130.8,342.1,130.8"/>
</g>
</svg>
